HIERARCHY
ROOT SpineBase
{
  OFFSET 0.000000 0.000000 0.000000
  CHANNELS 6 Xposition Yposition Zposition Zrotation Xrotation Yrotation
  JOINT SpineMid
  {
    OFFSET -0.000000 30.586823 0.000000
    CHANNELS 3 Zrotation Xrotation Yrotation
    JOINT SpineShoulder
    {
      OFFSET -0.072434 22.605084 -0.789504
      CHANNELS 3 Zrotation Xrotation Yrotation
      JOINT Neck
      {
        OFFSET -0.059383 7.465616 -0.623596
        CHANNELS 3 Zrotation Xrotation Yrotation
        JOINT Head
        {
          OFFSET -5.843216 10.610011 3.113466
          CHANNELS 3 Zrotation Xrotation Yrotation
          End Site
          {
            OFFSET 0 0 0
          }
        }
      }
      JOINT ShoulderLeft
      {
        OFFSET -6.905798 -4.331080 13.717737
        CHANNELS 3 Zrotation Xrotation Yrotation
        JOINT ElbowLeft
        {
          OFFSET -4.152485 -23.227445 7.769302
          CHANNELS 3 Zrotation Xrotation Yrotation
          JOINT WristLeft
          {
            OFFSET 1.909549 -26.085450 -8.460689
            CHANNELS 3 Zrotation Xrotation Yrotation
            JOINT HandLeft
            {
              OFFSET -2.324058 -7.797383 2.252700
              CHANNELS 3 Zrotation Xrotation Yrotation
              JOINT HandTipLeft
              {
                OFFSET -1.367050 0.502596 3.396144
                CHANNELS 3 Zrotation Xrotation Yrotation
                End Site
                {
                  OFFSET 0 0 0
                }
              }
              JOINT ThumbLeft
              {
                OFFSET 0.765281 0.635189 -6.359508
                CHANNELS 3 Zrotation Xrotation Yrotation
                End Site
                {
                  OFFSET 0 0 0
                }
              }
            }
          }
        }
      }
      JOINT ShoulderRight
      {
        OFFSET 6.621950 -1.816535 -13.007304
        CHANNELS 3 Zrotation Xrotation Yrotation
        JOINT ElbowRight
        {
          OFFSET 3.110531 -20.259309 -7.094129
          CHANNELS 3 Zrotation Xrotation Yrotation
          JOINT WristRight
          {
            OFFSET -4.116573 -25.562920 -0.626671
            CHANNELS 3 Zrotation Xrotation Yrotation
            JOINT HandRight
            {
              OFFSET -2.272684 -8.847581 0.884363
              CHANNELS 3 Zrotation Xrotation Yrotation
              JOINT HandTipRight
              {
                OFFSET -1.483828 -6.328509 -1.749858
                CHANNELS 3 Zrotation Xrotation Yrotation
                End Site
                {
                  OFFSET 0 0 0
                }
              }
              JOINT ThumbRight
              {
                OFFSET 1.739137 0.832899 -1.756722
                CHANNELS 3 Zrotation Xrotation Yrotation
                End Site
                {
                  OFFSET 0 0 0
                }
              }
            }
          }
        }
      }
    }
  }
  JOINT HipLeft
  {
    OFFSET -3.872325 -0.518113 3.343969
    CHANNELS 3 Zrotation Xrotation Yrotation
    JOINT KneeLeft
    {
      OFFSET 0.416490 -37.854784 9.615084
      CHANNELS 3 Zrotation Xrotation Yrotation
      JOINT AnkleLeft
      {
        OFFSET 3.091918 -31.329423 -3.901196
        CHANNELS 3 Zrotation Xrotation Yrotation
        JOINT FootLeft
        {
          OFFSET -9.233548 -3.843228 -7.692714
          CHANNELS 3 Zrotation Xrotation Yrotation
          End Site
          {
            OFFSET 0 0 0
          }
        }
      }
    }
  }
  JOINT HipRight
  {
    OFFSET 3.393050 2.592576 -10.730067
    CHANNELS 3 Zrotation Xrotation Yrotation
    JOINT KneeRight
    {
      OFFSET 5.722238 -40.379628 3.869371
      CHANNELS 3 Zrotation Xrotation Yrotation
      JOINT AnkleRight
      {
        OFFSET 7.212525 -33.447300 6.416517
        CHANNELS 3 Zrotation Xrotation Yrotation
        JOINT FootRight
        {
          OFFSET -9.420231 -3.793632 -7.647260
          CHANNELS 3 Zrotation Xrotation Yrotation
          End Site
          {
            OFFSET 0 0 0
          }
        }
      }
    }
  }
}
MOTION
Frames: 7
Frame Time: 0.033333
8.806064 88.424243 298.678502 5.839840 2.621054 59.676699 0.336473 -0.869628 -59.534864 -0.542903 -0.105814 0.288988 1.169121 5.207221 1.086610 0.000000 0.000000 0.000000 -6.239905 -2.306714 -0.664992 -3.032350 -5.609370 0.431911 30.506264 6.916332 4.112993 -42.351265 -10.194642 -159.996760 0.000000 0.000000 0.000000 0.000000 0.000000 0.000000 -8.468789 -5.896343 -0.614735 7.469820 5.239856 -1.087628 -1.753537 -11.181772 3.498835 4.091381 8.567229 -5.448728 0.000000 0.000000 0.000000 0.000000 0.000000 0.000000 6.738861 -1.473252 -57.070572 12.317577 -26.399780 -1.363748 -13.673412 11.662342 -1.709160 0.000000 0.000000 0.000000 -16.355821 31.035950 -58.334645 27.170920 3.564551 4.612546 15.799983 -22.441852 21.861798 0.000000 0.000000 0.000000
7.896768 87.594978 299.154108 7.654206 2.108470 56.918771 0.448960 -1.037462 -56.709537 -0.669701 -0.185917 0.380955 -2.972979 6.020051 1.663895 0.000000 0.000000 0.000000 -8.119794 -1.632358 -0.807711 -3.015895 -5.609146 0.427313 30.110491 7.466165 3.720324 26.400810 -23.987862 -147.306436 0.000000 0.000000 0.000000 0.000000 0.000000 0.000000 -10.929569 -4.991032 -0.521766 9.215135 4.549281 -1.337997 -1.493077 -14.206014 4.771034 5.058793 13.672636 -8.157928 0.000000 0.000000 0.000000 0.000000 0.000000 0.000000 5.739957 -3.408129 -53.405122 8.098292 -21.916573 -3.481459 -17.225998 11.031306 4.613476 0.000000 0.000000 0.000000 -18.313958 32.159496 -54.747201 17.177024 4.626239 3.201645 34.890763 -26.923266 30.415565 0.000000 0.000000 0.000000
6.442547 86.964763 299.849063 9.372657 1.225622 54.887181 0.455359 -0.935765 -54.591770 -0.814540 -0.185318 0.450302 -5.268651 6.734580 1.715952 0.000000 0.000000 0.000000 -9.597652 -0.735476 -0.871256 -2.990252 -5.609914 0.420035 29.287198 6.483632 4.127153 27.845320 -23.540068 -148.152043 0.000000 0.000000 0.000000 0.000000 0.000000 0.000000 -12.866588 -3.963817 -0.374471 10.819907 3.389247 -1.392750 -1.929388 -17.104828 5.962548 5.299272 18.143266 -10.013888 0.000000 0.000000 0.000000 0.000000 0.000000 0.000000 5.427048 -4.923676 -50.534428 2.360467 -15.103223 -5.392709 -19.699239 8.173188 11.194230 0.000000 0.000000 0.000000 -18.545667 31.985973 -52.260606 5.712563 5.651842 1.554891 43.202700 -25.781373 28.512042 0.000000 0.000000 0.000000
5.054094 86.903555 300.542054 11.222207 0.135385 54.128499 0.306010 -1.002760 -53.677190 -0.898314 -0.252936 0.543632 -8.252962 8.856538 2.442678 0.000000 0.000000 0.000000 -11.308760 0.649325 -0.879325 -2.964453 -5.610307 0.412751 29.126400 6.519745 4.088927 28.831861 -23.796725 -148.188893 0.000000 0.000000 0.000000 0.000000 0.000000 0.000000 -15.276798 -2.444455 -0.039890 12.478525 2.162101 -1.488923 -1.977483 -19.599872 7.135312 6.498753 21.084166 -12.141704 0.000000 0.000000 0.000000 0.000000 0.000000 0.000000 5.429804 -4.132760 -49.552733 1.745045 -12.574038 -5.968925 -21.156577 7.591005 9.399269 0.000000 0.000000 0.000000 -17.345939 31.503357 -51.361013 -4.860186 6.248676 -0.138526 45.743305 -21.849641 20.577968 0.000000 0.000000 0.000000
3.263192 86.891095 301.235841 12.691503 -1.490543 54.348376 0.216904 -1.040492 -53.672576 -0.649159 -0.358025 0.650260 -13.722757 9.690918 3.426478 0.000000 0.000000 0.000000 -12.974870 2.527125 -0.783053 -2.937893 -5.611006 0.405224 29.039025 6.606350 4.038606 29.839692 -24.095781 -148.171821 0.000000 0.000000 0.000000 0.000000 0.000000 0.000000 -16.487601 -1.213370 -0.100532 12.677584 1.546506 -1.076662 -0.656023 -19.921342 7.973191 6.173302 20.279967 -12.863579 0.000000 0.000000 0.000000 0.000000 0.000000 0.000000 6.239768 -2.384350 -49.820884 2.512958 -12.123661 -6.135824 -18.401678 4.971915 7.070983 0.000000 0.000000 0.000000 -15.184264 32.050587 -51.455420 -10.217433 6.091840 -1.256962 42.415255 -16.767018 12.118299 0.000000 0.000000 0.000000
1.005424 87.129790 301.756724 13.897009 -3.062613 56.108039 0.158145 -0.692253 -55.220777 -0.572059 -0.193606 0.682617 -16.791341 11.035022 4.504046 0.000000 0.000000 0.000000 -14.279252 -0.993689 0.076565 -2.714286 -2.168877 -0.220231 29.699011 7.057876 4.019705 -56.488506 -4.265495 -162.236947 0.000000 0.000000 0.000000 0.000000 0.000000 0.000000 -17.330107 -1.220835 -0.193410 12.621101 1.450822 -0.747238 0.784970 -21.024413 8.919744 4.634298 17.228090 -11.826589 0.000000 0.000000 0.000000 0.000000 0.000000 0.000000 7.314024 0.919599 -52.221248 6.777113 -14.709126 -5.361683 -21.045147 5.074991 8.330290 0.000000 0.000000 0.000000 -11.395410 32.387720 -53.615716 -13.967881 5.082058 -2.546891 39.449985 -13.134960 9.575263 0.000000 0.000000 0.000000
-1.790416 87.085514 301.961329 13.616848 -3.324147 58.744344 -0.027921 -0.262327 -57.861507 -0.358696 -0.015418 0.637359 -12.159271 7.990999 1.177864 0.000000 0.000000 0.000000 -12.874175 -0.207154 0.218778 -3.416980 -2.065383 -0.345432 29.377209 4.666110 5.334901 -36.857829 -8.387842 -164.937571 0.000000 0.000000 0.000000 0.000000 0.000000 0.000000 -16.202546 -1.953013 -0.531288 10.176394 1.543328 -0.200772 2.227655 -19.130920 8.114066 0.044168 13.020147 -7.538400 0.000000 0.000000 0.000000 0.000000 0.000000 0.000000 8.920202 -1.214834 -54.245547 4.192246 -14.781122 -5.974080 -20.760555 4.967743 8.987884 0.000000 0.000000 0.000000 -7.735309 31.401751 -57.162912 -14.184850 3.773179 -3.200506 35.871585 -11.150920 8.013236 0.000000 0.000000 0.000000
